<svg xmlns="http://www.w3.org/2000/svg" xmlns:xlink="http://www.w3.org/1999/xlink" width="191" height="85" viewBox="0 0 191 85"><defs><linearGradient id="linear-gradient" x1="-862.19825" y1="-268.12744" x2="-875.4989" y2="-244.99581" gradientTransform="rotate(-32.818 125.064035 -1615.026734)" gradientUnits="userSpaceOnUse"><stop offset="0" stop-color="#0ff"/><stop offset=".22853" stop-color="#2ed5e9"/><stop offset=".59764" stop-color="#7397c8"/><stop offset=".86455" stop-color="#9e70b4"/><stop offset="1" stop-color="#af61ac"/></linearGradient><linearGradient id="linear-gradient-2" x1="-882.99512" y1="-266.57995" x2="-826.40919" y2="-308.08027" gradientTransform="rotate(-32.818 125.064035 -1615.026734)" gradientUnits="userSpaceOnUse"><stop offset="0" stop-color="#af61ac"/><stop offset=".99907" stop-color="#00a3e1"/></linearGradient><linearGradient id="linear-gradient-3" x1="30.75675" y1="55.86864" x2="71.44737" y2="55.86864" gradientUnits="userSpaceOnUse"><stop offset="0" stop-color="#0ff"/><stop offset="1" stop-color="#00a3e1"/></linearGradient><linearGradient id="linear-gradient-4" x1="30.16406" y1="44.74528" x2="72.04005" y2="44.74528" xlink:href="#linear-gradient-3"/><linearGradient id="linear-gradient-5" x1="-861.81783" y1="-287.47613" x2="-802.67292" y2="-287.47613" gradientTransform="rotate(-32.818 125.064035 -1615.026734)" gradientUnits="userSpaceOnUse"><stop offset="0" stop-color="#0ff"/><stop offset=".99938" stop-color="#00a3e1"/></linearGradient><linearGradient id="linear-gradient-6" x1="-872.98036" y1="-256.49746" x2="-812.33436" y2="-256.49746" gradientTransform="rotate(-32.818 125.064035 -1615.026734)" gradientUnits="userSpaceOnUse"><stop offset="0" stop-color="#0ff"/><stop offset=".39046" stop-color="#00a3e1"/></linearGradient><style>.cls-3{fill:#fff}</style></defs><g id="Layer_2" data-name="Layer 2"><g id="_1c" data-name="1c"><path d="M35.39964 84.483a37.94289 37.94289 0 01-15.91293-56.02473l7.45871 5.07341A28.93466 28.93466 0 0039.0713 76.25z" fill="url(#linear-gradient)"/><path d="M14.16317 85A51.19127 51.19127 0 018.137 77.36777 50.83715 50.83715 0 0140.91409 0l2.024 10.12816a40.5075 40.5075 0 00-26.1112 61.64222 40.8476 40.8476 0 004.80721 6.08951z" fill="url(#linear-gradient-2)"/><path class="cls-3" d="M105.165 54.84267c0 7.42788-4.83806 12.08116-12.99221 12.08116-8.109 0-12.94762-4.65328-12.94762-12.08116v-20.717h5.60019v20.2251c0 4.65328 2.73291 7.38249 7.34743 7.38249 4.65911 0 7.34742-2.72921 7.34742-7.38249V34.12563h5.64479zM135.71652 41.061a20.1834 20.1834 0 00-9.229-2.32636 11.14621 11.14621 0 00-11.60318 11.49957 11.11276 11.11276 0 0011.4691 11.499 20.97847 20.97847 0 009.58694-2.28153v5.23486a21.4195 21.4195 0 01-9.81134 2.23728c-9.72158 0-16.93494-7.15893-16.93494-16.68961 0-9.48642 7.21336-16.69017 17.06958-16.69017a19.94345 19.94345 0 019.45286 2.28209zM147.63046 47.77282l-1.2544-1.25282v19.82224h-5.421V33.63369h.08976l15.00846 16.64479 15.00788-16.64479h.08977v32.70855h-5.37607V46.52l-1.29928 1.25282c-2.77752 3.26655-5.59991 6.48826-8.4223 9.71zM79.76659 84.71874V73.84161h3.13088c3.49419 0 5.82375 2.17543 5.82375 5.43856s-2.29917 5.43857-5.763 5.43857zm1.4521-9.65381v8.42992h1.72423a4.21649 4.21649 0 10-.0605-8.42992zM90.68718 84.71874V73.84161h1.4521v10.87713zM99.83837 84.89974A5.622 5.622 0 1199.91393 73.66a7.10118 7.10118 0 013.23712.77054v1.39013a7.18888 7.18888 0 00-3.26723-.81592 4.28282 4.28282 0 10-.04545 8.56552 5.80144 5.80144 0 002.14747-.39264v-3.27842h1.422v4.16985a8.02656 8.02656 0 01-3.56947.83068zM105.5252 84.71874V73.84161h1.4521v10.87713zM113.25383 75.06493v9.65381h-1.4521v-9.65381h-3.31268v-1.22332h8.09223v1.22332zM120.46889 73.66h.03011l5.02213 11.0587h-1.543l-1.0743-2.41714h-4.85511l-1.059 2.41714h-1.543zm1.906 7.44774c-.74139-1.66136-1.301-2.96071-1.89125-4.50178-.605 1.54107-1.16464 2.84042-1.90546 4.50178zM126.88177 84.71874V73.84161h1.4521v9.65324h4.68922v1.22389zM144.24563 84.71874v-4.895h-5.39993v4.895h-1.4521V73.84161h1.4521v4.75881h5.39993v-4.75881h1.4521v10.87713zM148.4957 84.71874V73.84161h6.68614v1.22332h-5.234v3.53549h4.41709v1.22333h-4.41713v3.6711h5.46072v1.22389zM161.2618 73.66h.03068l5.02157 11.0587h-1.54243l-1.07431-2.41714h-4.85568l-1.05839 2.41714h-1.543zm1.906 7.44774c-.74082-1.66136-1.30042-2.96071-1.89069-4.50178-.605 1.54107-1.16463 2.84042-1.906 4.50178zM167.67468 84.71874V73.84161h1.4521v9.65324h4.68922v1.22389zM177.71781 75.06493v9.65381h-1.4521v-9.65381H172.953v-1.22332h8.09279v1.22332zM189.40962 84.71874v-4.895h-5.39993v4.895h-1.45211V73.84161h1.45211v4.75881h5.39993v-4.75881h1.4521v10.87713z"/><g><path class="cls-3" d="M174.1154 37.24352v-.5518a2.77768 2.77768 0 001.18054.29618c.52324 0 .913-.21476.913-.598 0-.389-.22668-.59805-.93057-.842-.80218-.27859-1.18-.62131-1.18-1.2602 0-.70841.59311-1.12062 1.39529-1.12062a2.68519 2.68519 0 011.04078.21476v.52853a2.38055 2.38055 0 00-1.01181-.244c-.51755 0-.87774.23235-.87774.604 0 .34271.20339.58641.91864.83607.80218.29051 1.19191.61563 1.19191 1.2429 0 .71408-.55278 1.13821-1.43051 1.13821a3.17283 3.17283 0 01-1.20953-.24403zM178.13481 34.75233l-.11078-.13362v2.799h-.54028V33.167h.00568l1.89523 2.317 1.90148-2.317h.00568v4.2507h-.54082v-2.799l-.11021.13362-1.25611 1.51554z"/></g><g><g opacity=".9"><path d="M58.38985 54.5279l-1.10438-3.355a.124.124 0 00-.22526-.023l-3.60713 6.26346a.6797.6797 0 01-.58111.34023l-.25395.003a.67927.67927 0 01-.68071-.58318l-2.29284-16.11747a.124.124 0 00-.24614.00507l-2.32074 23.15435a.58123.58123 0 01-.57863.52293h-.29538a.58138.58138 0 01-.564-.43952L42.84726 53.176a.12406.12406 0 00-.22771-.03174l-.9251 1.60263a.13532.13532 0 01-.11721.06763H30.75675a20.94364 20.94364 0 0040.69062 0H58.78622a.41717.41717 0 01-.39637-.28662z" fill="url(#linear-gradient-3)"/><path d="M51.102 28.96421A20.89463 20.89463 0 0030.47727 53.4631H40.8726l1.43151-2.4764a.64987.64987 0 01.56538-.32437l.23783.001a.64945.64945 0 01.62737.491l2.35278 9.372 2.59206-25.81594a.56334.56334 0 01.5608-.50676h.31067a.56338.56338 0 01.558.48385l2.94039 20.69683 3.697-6.39538a.714.714 0 011.29545.13224l1.41208 4.257a.124.124 0 00.11771.0849h12.15521A20.89463 20.89463 0 0051.102 28.96421z" fill="url(#linear-gradient-4)"/></g><path class="cls-3" d="M59.57171 53.4631a.124.124 0 01-.11771-.0849l-1.41208-4.257a.714.714 0 00-1.29545-.13224l-3.697 6.39538-2.94039-20.69684a.56338.56338 0 00-.558-.48385h-.31072a.56334.56334 0 00-.5608.50676l-2.59209 25.81594-2.35278-9.372a.64945.64945 0 00-.62737-.491l-.23783-.001a.64987.64987 0 00-.56538.32437L40.8726 53.4631H30.47727q.11835.68344.27948 1.35138h10.82049a.13532.13532 0 00.11721-.06763l.9251-1.60263a.12406.12406 0 01.22771.03174l2.79229 11.12281a.58138.58138 0 00.564.43952h.29545a.58123.58123 0 00.57863-.52293l2.3207-23.15436a.124.124 0 01.24614-.00507l2.29284 16.11745a.67927.67927 0 00.68071.58318l.25395-.003a.6797.6797 0 00.58111-.34023l3.60713-6.26346a.124.124 0 01.22526.023l1.10438 3.355a.41717.41717 0 00.39637.28658h12.66115q.16191-.66753.27947-1.35138z"/></g><path d="M62.15816 21.80259A30.27537 30.27537 0 0024.13826 35.727l-13.30855-6.99909a45.30657 45.30657 0 0156.9196-20.8705z" opacity=".7" fill="url(#linear-gradient-5)"/><path d="M62.47426 21.011a31.08926 31.08926 0 10-1.22241 58.21757l.77143 2.198a33.63975 33.63975 0 01-21.71648.12207 33.3911 33.3911 0 01-7.45644-59.72957 33.4748 33.4748 0 0130.49089-2.97049z" fill="url(#linear-gradient-6)"/><path fill="none" d="M0 0h191v84.92206H0z"/></g></g></svg>